<mxfile host="Electron" modified="2024-02-27T16:41:18.312Z" agent="Mozilla/5.0 (Macintosh; Intel Mac OS X 10_15_7) AppleWebKit/537.36 (KHTML, like Gecko) draw.io/23.1.5 Chrome/120.0.6099.109 Electron/28.1.0 Safari/537.36" etag="JVRKptCSelhkhNAXz1pR" version="23.1.5" type="device">
  <diagram name="Page-1" id="I8bB1_BSA_W8SCRYw5Tl">
    <mxGraphModel dx="1393" dy="1118" grid="1" gridSize="10" guides="1" tooltips="1" connect="1" arrows="1" fold="1" page="1" pageScale="1" pageWidth="850" pageHeight="1100" math="1" shadow="0">
      <root>
        <mxCell id="0" />
        <mxCell id="1" parent="0" />
        <mxCell id="U1pjUIA-5XBeJITS1JO2-47" value="" style="group" vertex="1" connectable="0" parent="1">
          <mxGeometry x="125" y="580" width="600" height="380" as="geometry" />
        </mxCell>
        <mxCell id="U1pjUIA-5XBeJITS1JO2-48" value="" style="rounded=0;whiteSpace=wrap;html=1;strokeColor=none;fillColor=none;" vertex="1" parent="U1pjUIA-5XBeJITS1JO2-47">
          <mxGeometry width="600" height="380" as="geometry" />
        </mxCell>
        <mxCell id="U1pjUIA-5XBeJITS1JO2-49" value="M" style="text;html=1;strokeColor=none;fillColor=none;align=center;verticalAlign=middle;whiteSpace=wrap;rounded=0;" vertex="1" parent="U1pjUIA-5XBeJITS1JO2-47">
          <mxGeometry x="490" y="10" width="60" height="20" as="geometry" />
        </mxCell>
        <mxCell id="U1pjUIA-5XBeJITS1JO2-50" value="Public Input X" style="rounded=0;whiteSpace=wrap;html=1;fillColor=none;" vertex="1" parent="U1pjUIA-5XBeJITS1JO2-47">
          <mxGeometry x="91.25" y="200" width="254.75" height="40" as="geometry" />
        </mxCell>
        <mxCell id="U1pjUIA-5XBeJITS1JO2-51" value="" style="rounded=0;whiteSpace=wrap;html=1;fillColor=none;" vertex="1" parent="U1pjUIA-5XBeJITS1JO2-47">
          <mxGeometry x="30" y="40" width="360" height="100" as="geometry" />
        </mxCell>
        <mxCell id="U1pjUIA-5XBeJITS1JO2-52" value="PC" style="rounded=0;whiteSpace=wrap;html=1;" vertex="1" parent="U1pjUIA-5XBeJITS1JO2-47">
          <mxGeometry x="310" y="72" width="40" height="40" as="geometry" />
        </mxCell>
        <mxCell id="U1pjUIA-5XBeJITS1JO2-53" value="R" style="text;html=1;strokeColor=none;fillColor=none;align=center;verticalAlign=middle;whiteSpace=wrap;rounded=0;" vertex="1" parent="U1pjUIA-5XBeJITS1JO2-47">
          <mxGeometry x="135.25" y="50" width="60" height="20" as="geometry" />
        </mxCell>
        <mxCell id="U1pjUIA-5XBeJITS1JO2-54" value="" style="edgeStyle=elbowEdgeStyle;elbow=horizontal;endArrow=classic;html=1;curved=0;rounded=0;endSize=8;startSize=8;exitX=1;exitY=0.5;exitDx=0;exitDy=0;" edge="1" parent="U1pjUIA-5XBeJITS1JO2-47" source="U1pjUIA-5XBeJITS1JO2-52">
          <mxGeometry width="50" height="50" relative="1" as="geometry">
            <mxPoint x="347" y="92" as="sourcePoint" />
            <mxPoint x="477" y="240" as="targetPoint" />
            <Array as="points" />
          </mxGeometry>
        </mxCell>
        <mxCell id="U1pjUIA-5XBeJITS1JO2-55" style="edgeStyle=orthogonalEdgeStyle;rounded=0;orthogonalLoop=1;jettySize=auto;html=1;entryX=0.5;entryY=0;entryDx=0;entryDy=0;exitX=0.028;exitY=1;exitDx=0;exitDy=0;exitPerimeter=0;" edge="1" parent="U1pjUIA-5XBeJITS1JO2-47">
          <mxGeometry relative="1" as="geometry">
            <mxPoint x="223.625" y="310" as="targetPoint" />
            <mxPoint x="45.08000000000004" y="140" as="sourcePoint" />
            <Array as="points">
              <mxPoint x="50" y="140" />
              <mxPoint x="50" y="260" />
              <mxPoint x="224" y="260" />
            </Array>
          </mxGeometry>
        </mxCell>
        <mxCell id="U1pjUIA-5XBeJITS1JO2-56" value="Auxiliary Input W" style="rounded=0;whiteSpace=wrap;html=1;fillColor=none;" vertex="1" parent="U1pjUIA-5XBeJITS1JO2-47">
          <mxGeometry x="91.25" y="310" width="254.75" height="40" as="geometry" />
        </mxCell>
        <mxCell id="U1pjUIA-5XBeJITS1JO2-57" style="edgeStyle=orthogonalEdgeStyle;rounded=0;orthogonalLoop=1;jettySize=auto;html=1;entryX=0.5;entryY=0;entryDx=0;entryDy=0;exitX=0.137;exitY=1.015;exitDx=0;exitDy=0;exitPerimeter=0;" edge="1" parent="U1pjUIA-5XBeJITS1JO2-47" source="U1pjUIA-5XBeJITS1JO2-51">
          <mxGeometry relative="1" as="geometry">
            <mxPoint x="211.24" y="201" as="targetPoint" />
            <mxPoint x="62.25234567901248" y="121" as="sourcePoint" />
            <Array as="points">
              <mxPoint x="79" y="170" />
              <mxPoint x="211" y="170" />
            </Array>
          </mxGeometry>
        </mxCell>
        <mxCell id="U1pjUIA-5XBeJITS1JO2-58" value="" style="rounded=0;whiteSpace=wrap;html=1;direction=south;fillColor=none;" vertex="1" parent="U1pjUIA-5XBeJITS1JO2-47">
          <mxGeometry x="476.5" y="40" width="90" height="320" as="geometry" />
        </mxCell>
        <mxCell id="U1pjUIA-5XBeJITS1JO2-59" value="" style="line;strokeWidth=1;html=1;perimeter=backbonePerimeter;points=[];outlineConnect=0;" vertex="1" parent="U1pjUIA-5XBeJITS1JO2-47">
          <mxGeometry x="476.5" y="52" width="90" height="12" as="geometry" />
        </mxCell>
        <mxCell id="U1pjUIA-5XBeJITS1JO2-60" value="" style="line;strokeWidth=1;html=1;perimeter=backbonePerimeter;points=[];outlineConnect=0;" vertex="1" parent="U1pjUIA-5XBeJITS1JO2-47">
          <mxGeometry x="476.5" y="68" width="90" height="12" as="geometry" />
        </mxCell>
        <mxCell id="U1pjUIA-5XBeJITS1JO2-61" value="" style="line;strokeWidth=1;html=1;perimeter=backbonePerimeter;points=[];outlineConnect=0;" vertex="1" parent="U1pjUIA-5XBeJITS1JO2-47">
          <mxGeometry x="477.5" y="84" width="90" height="12" as="geometry" />
        </mxCell>
        <mxCell id="U1pjUIA-5XBeJITS1JO2-62" value="" style="line;strokeWidth=1;html=1;perimeter=backbonePerimeter;points=[];outlineConnect=0;" vertex="1" parent="U1pjUIA-5XBeJITS1JO2-47">
          <mxGeometry x="476.5" y="100" width="90" height="12" as="geometry" />
        </mxCell>
        <mxCell id="U1pjUIA-5XBeJITS1JO2-63" value="" style="line;strokeWidth=1;html=1;perimeter=backbonePerimeter;points=[];outlineConnect=0;" vertex="1" parent="U1pjUIA-5XBeJITS1JO2-47">
          <mxGeometry x="476.5" y="339" width="90" height="12" as="geometry" />
        </mxCell>
        <mxCell id="U1pjUIA-5XBeJITS1JO2-64" value="" style="line;strokeWidth=1;html=1;perimeter=backbonePerimeter;points=[];outlineConnect=0;" vertex="1" parent="U1pjUIA-5XBeJITS1JO2-47">
          <mxGeometry x="476.5" y="323" width="90" height="12" as="geometry" />
        </mxCell>
        <mxCell id="U1pjUIA-5XBeJITS1JO2-65" value="" style="line;strokeWidth=1;html=1;perimeter=backbonePerimeter;points=[];outlineConnect=0;" vertex="1" parent="U1pjUIA-5XBeJITS1JO2-47">
          <mxGeometry x="476" y="310" width="90" height="12" as="geometry" />
        </mxCell>
        <mxCell id="U1pjUIA-5XBeJITS1JO2-66" value="" style="group" vertex="1" connectable="0" parent="U1pjUIA-5XBeJITS1JO2-47">
          <mxGeometry x="514.5" y="169" width="20" height="42" as="geometry" />
        </mxCell>
        <mxCell id="U1pjUIA-5XBeJITS1JO2-67" value="" style="shape=waypoint;sketch=0;fillStyle=solid;size=6;pointerEvents=1;points=[];fillColor=none;resizable=0;rotatable=0;perimeter=centerPerimeter;snapToPoint=1;" vertex="1" parent="U1pjUIA-5XBeJITS1JO2-66">
          <mxGeometry y="11" width="20" height="20" as="geometry" />
        </mxCell>
        <mxCell id="U1pjUIA-5XBeJITS1JO2-68" value="" style="shape=waypoint;sketch=0;fillStyle=solid;size=6;pointerEvents=1;points=[];fillColor=none;resizable=0;rotatable=0;perimeter=centerPerimeter;snapToPoint=1;" vertex="1" parent="U1pjUIA-5XBeJITS1JO2-66">
          <mxGeometry y="22" width="20" height="20" as="geometry" />
        </mxCell>
        <mxCell id="U1pjUIA-5XBeJITS1JO2-69" value="" style="shape=waypoint;sketch=0;fillStyle=solid;size=6;pointerEvents=1;points=[];fillColor=none;resizable=0;rotatable=0;perimeter=centerPerimeter;snapToPoint=1;" vertex="1" parent="U1pjUIA-5XBeJITS1JO2-66">
          <mxGeometry width="20" height="20" as="geometry" />
        </mxCell>
        <mxCell id="U1pjUIA-5XBeJITS1JO2-70" value="0" style="text;html=1;strokeColor=none;fillColor=none;align=center;verticalAlign=middle;whiteSpace=wrap;rounded=0;" vertex="1" parent="U1pjUIA-5XBeJITS1JO2-47">
          <mxGeometry x="432" y="43" width="60" height="9" as="geometry" />
        </mxCell>
        <mxCell id="U1pjUIA-5XBeJITS1JO2-71" value="1" style="text;html=1;strokeColor=none;fillColor=none;align=center;verticalAlign=middle;whiteSpace=wrap;rounded=0;" vertex="1" parent="U1pjUIA-5XBeJITS1JO2-47">
          <mxGeometry x="432" y="60" width="60" height="9" as="geometry" />
        </mxCell>
        <mxCell id="U1pjUIA-5XBeJITS1JO2-72" value="2" style="text;html=1;strokeColor=none;fillColor=none;align=center;verticalAlign=middle;whiteSpace=wrap;rounded=0;" vertex="1" parent="U1pjUIA-5XBeJITS1JO2-47">
          <mxGeometry x="432" y="77" width="60" height="9" as="geometry" />
        </mxCell>
        <mxCell id="U1pjUIA-5XBeJITS1JO2-73" value="2&lt;sup&gt;32&lt;/sup&gt;-1" style="text;html=1;strokeColor=none;fillColor=none;align=center;verticalAlign=middle;whiteSpace=wrap;rounded=0;" vertex="1" parent="U1pjUIA-5XBeJITS1JO2-47">
          <mxGeometry x="430" y="348" width="60" height="9" as="geometry" />
        </mxCell>
        <mxCell id="U1pjUIA-5XBeJITS1JO2-74" value="2&lt;sup&gt;32&lt;/sup&gt;-2" style="text;html=1;strokeColor=none;fillColor=none;align=center;verticalAlign=middle;whiteSpace=wrap;rounded=0;" vertex="1" parent="U1pjUIA-5XBeJITS1JO2-47">
          <mxGeometry x="430" y="332" width="60" height="9" as="geometry" />
        </mxCell>
        <mxCell id="U1pjUIA-5XBeJITS1JO2-75" value="" style="rounded=0;whiteSpace=wrap;html=1;fillColor=none;" vertex="1" parent="U1pjUIA-5XBeJITS1JO2-47">
          <mxGeometry x="51.5" y="72" width="225" height="40" as="geometry" />
        </mxCell>
        <mxCell id="U1pjUIA-5XBeJITS1JO2-76" value="" style="line;strokeWidth=1;direction=south;html=1;" vertex="1" parent="U1pjUIA-5XBeJITS1JO2-47">
          <mxGeometry x="75" y="72" width="10" height="40" as="geometry" />
        </mxCell>
        <mxCell id="U1pjUIA-5XBeJITS1JO2-77" value="" style="line;strokeWidth=1;direction=south;html=1;" vertex="1" parent="U1pjUIA-5XBeJITS1JO2-47">
          <mxGeometry x="102.5" y="72" width="10" height="40" as="geometry" />
        </mxCell>
        <mxCell id="U1pjUIA-5XBeJITS1JO2-78" value="" style="line;strokeWidth=1;direction=south;html=1;" vertex="1" parent="U1pjUIA-5XBeJITS1JO2-47">
          <mxGeometry x="130.5" y="72" width="10" height="40" as="geometry" />
        </mxCell>
        <mxCell id="U1pjUIA-5XBeJITS1JO2-79" value="" style="line;strokeWidth=1;direction=south;html=1;" vertex="1" parent="U1pjUIA-5XBeJITS1JO2-47">
          <mxGeometry x="158" y="72" width="10" height="40" as="geometry" />
        </mxCell>
        <mxCell id="U1pjUIA-5XBeJITS1JO2-80" value="" style="line;strokeWidth=1;direction=south;html=1;" vertex="1" parent="U1pjUIA-5XBeJITS1JO2-47">
          <mxGeometry x="216.5" y="72" width="10" height="40" as="geometry" />
        </mxCell>
        <mxCell id="U1pjUIA-5XBeJITS1JO2-81" value="" style="line;strokeWidth=1;direction=south;html=1;" vertex="1" parent="U1pjUIA-5XBeJITS1JO2-47">
          <mxGeometry x="244.5" y="72" width="10" height="40" as="geometry" />
        </mxCell>
        <mxCell id="U1pjUIA-5XBeJITS1JO2-82" value="R&lt;sub&gt;0&lt;/sub&gt;" style="text;html=1;strokeColor=none;fillColor=none;align=center;verticalAlign=middle;whiteSpace=wrap;rounded=0;" vertex="1" parent="U1pjUIA-5XBeJITS1JO2-47">
          <mxGeometry x="50" y="82" width="34" height="20" as="geometry" />
        </mxCell>
        <mxCell id="U1pjUIA-5XBeJITS1JO2-83" value="R&lt;sub&gt;1&lt;/sub&gt;" style="text;html=1;strokeColor=none;fillColor=none;align=center;verticalAlign=middle;whiteSpace=wrap;rounded=0;" vertex="1" parent="U1pjUIA-5XBeJITS1JO2-47">
          <mxGeometry x="76" y="82" width="34" height="20" as="geometry" />
        </mxCell>
        <mxCell id="U1pjUIA-5XBeJITS1JO2-84" value="R&lt;sub&gt;2&lt;/sub&gt;" style="text;html=1;strokeColor=none;fillColor=none;align=center;verticalAlign=middle;whiteSpace=wrap;rounded=0;" vertex="1" parent="U1pjUIA-5XBeJITS1JO2-47">
          <mxGeometry x="103" y="82" width="34" height="20" as="geometry" />
        </mxCell>
        <mxCell id="U1pjUIA-5XBeJITS1JO2-85" value="R&lt;sub&gt;30&lt;/sub&gt;" style="text;html=1;strokeColor=none;fillColor=none;align=center;verticalAlign=middle;whiteSpace=wrap;rounded=0;" vertex="1" parent="U1pjUIA-5XBeJITS1JO2-47">
          <mxGeometry x="218.5" y="82" width="34" height="20" as="geometry" />
        </mxCell>
        <mxCell id="U1pjUIA-5XBeJITS1JO2-86" value="R&lt;sub&gt;31&lt;/sub&gt;" style="text;html=1;strokeColor=none;fillColor=none;align=center;verticalAlign=middle;whiteSpace=wrap;rounded=0;" vertex="1" parent="U1pjUIA-5XBeJITS1JO2-47">
          <mxGeometry x="246.5" y="82" width="34" height="20" as="geometry" />
        </mxCell>
        <mxCell id="U1pjUIA-5XBeJITS1JO2-87" value="R&lt;span style=&quot;font-size: 10px;&quot;&gt;3&lt;/span&gt;" style="text;html=1;strokeColor=none;fillColor=none;align=center;verticalAlign=middle;whiteSpace=wrap;rounded=0;" vertex="1" parent="U1pjUIA-5XBeJITS1JO2-47">
          <mxGeometry x="131" y="82" width="34" height="20" as="geometry" />
        </mxCell>
        <mxCell id="U1pjUIA-5XBeJITS1JO2-88" value="" style="group" vertex="1" connectable="0" parent="U1pjUIA-5XBeJITS1JO2-47">
          <mxGeometry x="172.5" y="82" width="40" height="20" as="geometry" />
        </mxCell>
        <mxCell id="U1pjUIA-5XBeJITS1JO2-89" value="" style="shape=waypoint;sketch=0;fillStyle=solid;size=6;pointerEvents=1;points=[];fillColor=none;resizable=0;rotatable=0;perimeter=centerPerimeter;snapToPoint=1;" vertex="1" parent="U1pjUIA-5XBeJITS1JO2-88">
          <mxGeometry width="20" height="20" as="geometry" />
        </mxCell>
        <mxCell id="U1pjUIA-5XBeJITS1JO2-90" value="" style="shape=waypoint;sketch=0;fillStyle=solid;size=6;pointerEvents=1;points=[];fillColor=none;resizable=0;rotatable=0;perimeter=centerPerimeter;snapToPoint=1;" vertex="1" parent="U1pjUIA-5XBeJITS1JO2-88">
          <mxGeometry x="10" width="20" height="20" as="geometry" />
        </mxCell>
        <mxCell id="U1pjUIA-5XBeJITS1JO2-91" value="" style="shape=waypoint;sketch=0;fillStyle=solid;size=6;pointerEvents=1;points=[];fillColor=none;resizable=0;rotatable=0;perimeter=centerPerimeter;snapToPoint=1;" vertex="1" parent="U1pjUIA-5XBeJITS1JO2-88">
          <mxGeometry x="20" width="20" height="20" as="geometry" />
        </mxCell>
        <mxCell id="ex7kHfUKGhylopWH0X7d-3" value="" style="rounded=0;whiteSpace=wrap;html=1;strokeColor=none;fillColor=none;" parent="1" vertex="1">
          <mxGeometry x="100" y="120" width="600" height="380" as="geometry" />
        </mxCell>
        <mxCell id="lRC7-Jg-s2bIB4YIQtNB-43" value="$$M$$" style="text;html=1;strokeColor=none;fillColor=none;align=center;verticalAlign=middle;whiteSpace=wrap;rounded=0;" parent="1" vertex="1">
          <mxGeometry x="590" y="130" width="60" height="20" as="geometry" />
        </mxCell>
        <mxCell id="lRC7-Jg-s2bIB4YIQtNB-47" value="$$\textrm{Public Input }I$$" style="rounded=0;whiteSpace=wrap;html=1;fillColor=none;" parent="1" vertex="1">
          <mxGeometry x="191.25" y="320" width="254.75" height="40" as="geometry" />
        </mxCell>
        <mxCell id="lRC7-Jg-s2bIB4YIQtNB-1" value="" style="rounded=0;whiteSpace=wrap;html=1;fillColor=none;" parent="1" vertex="1">
          <mxGeometry x="130" y="160" width="360" height="100" as="geometry" />
        </mxCell>
        <mxCell id="lRC7-Jg-s2bIB4YIQtNB-2" value="PC" style="rounded=0;whiteSpace=wrap;html=1;fillColor=none;" parent="1" vertex="1">
          <mxGeometry x="410" y="192" width="40" height="40" as="geometry" />
        </mxCell>
        <mxCell id="lRC7-Jg-s2bIB4YIQtNB-46" value="" style="edgeStyle=elbowEdgeStyle;elbow=horizontal;endArrow=classic;html=1;curved=0;rounded=0;endSize=8;startSize=8;exitX=1;exitY=0.5;exitDx=0;exitDy=0;" parent="1" source="lRC7-Jg-s2bIB4YIQtNB-2" edge="1">
          <mxGeometry width="50" height="50" relative="1" as="geometry">
            <mxPoint x="447" y="212" as="sourcePoint" />
            <mxPoint x="577" y="360" as="targetPoint" />
            <Array as="points" />
          </mxGeometry>
        </mxCell>
        <mxCell id="lRC7-Jg-s2bIB4YIQtNB-60" style="edgeStyle=orthogonalEdgeStyle;rounded=0;orthogonalLoop=1;jettySize=auto;html=1;entryX=0.5;entryY=0;entryDx=0;entryDy=0;exitX=0.028;exitY=1;exitDx=0;exitDy=0;exitPerimeter=0;" parent="1" edge="1">
          <mxGeometry relative="1" as="geometry">
            <mxPoint x="323.625" y="430" as="targetPoint" />
            <mxPoint x="145.08000000000004" y="260" as="sourcePoint" />
            <Array as="points">
              <mxPoint x="150" y="260" />
              <mxPoint x="150" y="380" />
              <mxPoint x="324" y="380" />
            </Array>
          </mxGeometry>
        </mxCell>
        <mxCell id="lRC7-Jg-s2bIB4YIQtNB-52" value="$$\textrm{Auxiliary Input }W$$" style="rounded=0;whiteSpace=wrap;html=1;fillColor=none;" parent="1" vertex="1">
          <mxGeometry x="191.25" y="430" width="254.75" height="40" as="geometry" />
        </mxCell>
        <mxCell id="lRC7-Jg-s2bIB4YIQtNB-61" style="edgeStyle=orthogonalEdgeStyle;rounded=0;orthogonalLoop=1;jettySize=auto;html=1;entryX=0.5;entryY=0;entryDx=0;entryDy=0;exitX=0.137;exitY=1.015;exitDx=0;exitDy=0;exitPerimeter=0;" parent="1" source="lRC7-Jg-s2bIB4YIQtNB-1" edge="1">
          <mxGeometry relative="1" as="geometry">
            <mxPoint x="311.24" y="321" as="targetPoint" />
            <mxPoint x="162.25234567901248" y="241" as="sourcePoint" />
            <Array as="points">
              <mxPoint x="179" y="290" />
              <mxPoint x="311" y="290" />
            </Array>
          </mxGeometry>
        </mxCell>
        <mxCell id="lRC7-Jg-s2bIB4YIQtNB-21" value="" style="rounded=0;whiteSpace=wrap;html=1;direction=south;fillColor=none;" parent="1" vertex="1">
          <mxGeometry x="576.5" y="160" width="90" height="320" as="geometry" />
        </mxCell>
        <mxCell id="lRC7-Jg-s2bIB4YIQtNB-25" value="" style="line;strokeWidth=1;html=1;perimeter=backbonePerimeter;points=[];outlineConnect=0;" parent="1" vertex="1">
          <mxGeometry x="576.5" y="172" width="90" height="12" as="geometry" />
        </mxCell>
        <mxCell id="lRC7-Jg-s2bIB4YIQtNB-26" value="" style="line;strokeWidth=1;html=1;perimeter=backbonePerimeter;points=[];outlineConnect=0;" parent="1" vertex="1">
          <mxGeometry x="576.5" y="188" width="90" height="12" as="geometry" />
        </mxCell>
        <mxCell id="lRC7-Jg-s2bIB4YIQtNB-27" value="" style="line;strokeWidth=1;html=1;perimeter=backbonePerimeter;points=[];outlineConnect=0;" parent="1" vertex="1">
          <mxGeometry x="577.5" y="204" width="90" height="12" as="geometry" />
        </mxCell>
        <mxCell id="lRC7-Jg-s2bIB4YIQtNB-28" value="" style="line;strokeWidth=1;html=1;perimeter=backbonePerimeter;points=[];outlineConnect=0;" parent="1" vertex="1">
          <mxGeometry x="576.5" y="220" width="90" height="12" as="geometry" />
        </mxCell>
        <mxCell id="lRC7-Jg-s2bIB4YIQtNB-29" value="" style="line;strokeWidth=1;html=1;perimeter=backbonePerimeter;points=[];outlineConnect=0;" parent="1" vertex="1">
          <mxGeometry x="576.5" y="459" width="90" height="12" as="geometry" />
        </mxCell>
        <mxCell id="lRC7-Jg-s2bIB4YIQtNB-30" value="" style="line;strokeWidth=1;html=1;perimeter=backbonePerimeter;points=[];outlineConnect=0;" parent="1" vertex="1">
          <mxGeometry x="576.5" y="443" width="90" height="12" as="geometry" />
        </mxCell>
        <mxCell id="lRC7-Jg-s2bIB4YIQtNB-31" value="" style="line;strokeWidth=1;html=1;perimeter=backbonePerimeter;points=[];outlineConnect=0;" parent="1" vertex="1">
          <mxGeometry x="576" y="430" width="90" height="12" as="geometry" />
        </mxCell>
        <mxCell id="lRC7-Jg-s2bIB4YIQtNB-36" value="" style="group" parent="1" vertex="1" connectable="0">
          <mxGeometry x="614.5" y="289" width="20" height="42" as="geometry" />
        </mxCell>
        <mxCell id="lRC7-Jg-s2bIB4YIQtNB-33" value="" style="shape=waypoint;sketch=0;fillStyle=solid;size=6;pointerEvents=1;points=[];fillColor=none;resizable=0;rotatable=0;perimeter=centerPerimeter;snapToPoint=1;" parent="lRC7-Jg-s2bIB4YIQtNB-36" vertex="1">
          <mxGeometry y="11" width="20" height="20" as="geometry" />
        </mxCell>
        <mxCell id="lRC7-Jg-s2bIB4YIQtNB-34" value="" style="shape=waypoint;sketch=0;fillStyle=solid;size=6;pointerEvents=1;points=[];fillColor=none;resizable=0;rotatable=0;perimeter=centerPerimeter;snapToPoint=1;" parent="lRC7-Jg-s2bIB4YIQtNB-36" vertex="1">
          <mxGeometry y="22" width="20" height="20" as="geometry" />
        </mxCell>
        <mxCell id="lRC7-Jg-s2bIB4YIQtNB-35" value="" style="shape=waypoint;sketch=0;fillStyle=solid;size=6;pointerEvents=1;points=[];fillColor=none;resizable=0;rotatable=0;perimeter=centerPerimeter;snapToPoint=1;" parent="lRC7-Jg-s2bIB4YIQtNB-36" vertex="1">
          <mxGeometry width="20" height="20" as="geometry" />
        </mxCell>
        <mxCell id="lRC7-Jg-s2bIB4YIQtNB-3" value="" style="rounded=0;whiteSpace=wrap;html=1;fillColor=none;" parent="1" vertex="1">
          <mxGeometry x="151.5" y="192" width="225" height="40" as="geometry" />
        </mxCell>
        <mxCell id="lRC7-Jg-s2bIB4YIQtNB-6" value="" style="line;strokeWidth=1;direction=south;html=1;" parent="1" vertex="1">
          <mxGeometry x="175" y="192" width="10" height="40" as="geometry" />
        </mxCell>
        <mxCell id="lRC7-Jg-s2bIB4YIQtNB-9" value="" style="line;strokeWidth=1;direction=south;html=1;" parent="1" vertex="1">
          <mxGeometry x="202.5" y="192" width="10" height="40" as="geometry" />
        </mxCell>
        <mxCell id="lRC7-Jg-s2bIB4YIQtNB-10" value="" style="line;strokeWidth=1;direction=south;html=1;" parent="1" vertex="1">
          <mxGeometry x="230.5" y="192" width="10" height="40" as="geometry" />
        </mxCell>
        <mxCell id="lRC7-Jg-s2bIB4YIQtNB-11" value="" style="line;strokeWidth=1;direction=south;html=1;" parent="1" vertex="1">
          <mxGeometry x="258" y="192" width="10" height="40" as="geometry" />
        </mxCell>
        <mxCell id="lRC7-Jg-s2bIB4YIQtNB-12" value="" style="line;strokeWidth=1;direction=south;html=1;" parent="1" vertex="1">
          <mxGeometry x="316.5" y="192" width="10" height="40" as="geometry" />
        </mxCell>
        <mxCell id="lRC7-Jg-s2bIB4YIQtNB-13" value="" style="line;strokeWidth=1;direction=south;html=1;" parent="1" vertex="1">
          <mxGeometry x="344.5" y="192" width="10" height="40" as="geometry" />
        </mxCell>
        <mxCell id="lRC7-Jg-s2bIB4YIQtNB-24" value="" style="group" parent="1" vertex="1" connectable="0">
          <mxGeometry x="272.5" y="202" width="40" height="20" as="geometry" />
        </mxCell>
        <mxCell id="lRC7-Jg-s2bIB4YIQtNB-18" value="" style="shape=waypoint;sketch=0;fillStyle=solid;size=6;pointerEvents=1;points=[];fillColor=none;resizable=0;rotatable=0;perimeter=centerPerimeter;snapToPoint=1;" parent="lRC7-Jg-s2bIB4YIQtNB-24" vertex="1">
          <mxGeometry width="20" height="20" as="geometry" />
        </mxCell>
        <mxCell id="lRC7-Jg-s2bIB4YIQtNB-22" value="" style="shape=waypoint;sketch=0;fillStyle=solid;size=6;pointerEvents=1;points=[];fillColor=none;resizable=0;rotatable=0;perimeter=centerPerimeter;snapToPoint=1;" parent="lRC7-Jg-s2bIB4YIQtNB-24" vertex="1">
          <mxGeometry x="10" width="20" height="20" as="geometry" />
        </mxCell>
        <mxCell id="lRC7-Jg-s2bIB4YIQtNB-23" value="" style="shape=waypoint;sketch=0;fillStyle=solid;size=6;pointerEvents=1;points=[];fillColor=none;resizable=0;rotatable=0;perimeter=centerPerimeter;snapToPoint=1;" parent="lRC7-Jg-s2bIB4YIQtNB-24" vertex="1">
          <mxGeometry x="20" width="20" height="20" as="geometry" />
        </mxCell>
        <mxCell id="U1pjUIA-5XBeJITS1JO2-96" value="$$x_0$$" style="text;html=1;align=center;verticalAlign=middle;whiteSpace=wrap;rounded=0;" vertex="1" parent="1">
          <mxGeometry x="136" y="197" width="60" height="30" as="geometry" />
        </mxCell>
        <mxCell id="U1pjUIA-5XBeJITS1JO2-97" value="$$x_1$$" style="text;html=1;align=center;verticalAlign=middle;whiteSpace=wrap;rounded=0;" vertex="1" parent="1">
          <mxGeometry x="163" y="197" width="60" height="30" as="geometry" />
        </mxCell>
        <mxCell id="U1pjUIA-5XBeJITS1JO2-99" value="$$x_2$$" style="text;html=1;align=center;verticalAlign=middle;whiteSpace=wrap;rounded=0;" vertex="1" parent="1">
          <mxGeometry x="191.25" y="197" width="60" height="30" as="geometry" />
        </mxCell>
        <mxCell id="U1pjUIA-5XBeJITS1JO2-100" value="$$x_3$$" style="text;html=1;align=center;verticalAlign=middle;whiteSpace=wrap;rounded=0;" vertex="1" parent="1">
          <mxGeometry x="220" y="197" width="60" height="30" as="geometry" />
        </mxCell>
        <mxCell id="U1pjUIA-5XBeJITS1JO2-101" value="$$x_{30}$$" style="text;html=1;align=center;verticalAlign=middle;whiteSpace=wrap;rounded=0;" vertex="1" parent="1">
          <mxGeometry x="306" y="198" width="60" height="30" as="geometry" />
        </mxCell>
        <mxCell id="U1pjUIA-5XBeJITS1JO2-102" value="$$x_{31}$$" style="text;html=1;align=center;verticalAlign=middle;whiteSpace=wrap;rounded=0;" vertex="1" parent="1">
          <mxGeometry x="334" y="198" width="60" height="30" as="geometry" />
        </mxCell>
        <mxCell id="U1pjUIA-5XBeJITS1JO2-104" value="$$R$$" style="text;html=1;align=center;verticalAlign=middle;whiteSpace=wrap;rounded=0;" vertex="1" parent="1">
          <mxGeometry x="232.5" y="165" width="60" height="30" as="geometry" />
        </mxCell>
        <mxCell id="U1pjUIA-5XBeJITS1JO2-105" value="$$2^{32}-2$$" style="text;html=1;align=center;verticalAlign=middle;whiteSpace=wrap;rounded=0;" vertex="1" parent="1">
          <mxGeometry x="517" y="441" width="60" height="30" as="geometry" />
        </mxCell>
        <mxCell id="U1pjUIA-5XBeJITS1JO2-106" value="$$2^{32}-1$$" style="text;html=1;align=center;verticalAlign=middle;whiteSpace=wrap;rounded=0;" vertex="1" parent="1">
          <mxGeometry x="516.5" y="458" width="60" height="30" as="geometry" />
        </mxCell>
        <mxCell id="U1pjUIA-5XBeJITS1JO2-107" value="$$0$$" style="text;html=1;align=center;verticalAlign=middle;whiteSpace=wrap;rounded=0;" vertex="1" parent="1">
          <mxGeometry x="532" y="154" width="60" height="30" as="geometry" />
        </mxCell>
        <mxCell id="U1pjUIA-5XBeJITS1JO2-109" value="$$1$$" style="text;html=1;align=center;verticalAlign=middle;whiteSpace=wrap;rounded=0;" vertex="1" parent="1">
          <mxGeometry x="532" y="170" width="60" height="30" as="geometry" />
        </mxCell>
        <mxCell id="U1pjUIA-5XBeJITS1JO2-110" value="$$2$$" style="text;html=1;align=center;verticalAlign=middle;whiteSpace=wrap;rounded=0;" vertex="1" parent="1">
          <mxGeometry x="532" y="186" width="60" height="30" as="geometry" />
        </mxCell>
      </root>
    </mxGraphModel>
  </diagram>
</mxfile>
